<?xml version="1.0" standalone="no"?>
<!DOCTYPE svg PUBLIC "-//W3C//DTD SVG 20010904//EN"
 "http://www.w3.org/TR/2001/REC-SVG-20010904/DTD/svg10.dtd">
<svg version="1.0" xmlns="http://www.w3.org/2000/svg"
 width="843.000000pt" height="843.000000pt" viewBox="0 0 843.000000 843.000000"
 preserveAspectRatio="xMidYMid meet">
<metadata>
Created by potrace 1.14, written by Peter Selinger 2001-2017
</metadata>
<g transform="translate(0.000000,843.000000) scale(0.100000,-0.100000)"
fill="#000000" stroke="none">
<path d="M4224 7969 c-4 -8 -3 -9 4 -5 7 4 12 2 12 -3 0 -6 -5 -11 -11 -11 -5
0 -7 -6 -4 -12 4 -7 -2 -3 -12 10 -18 22 -33 21 -33 -2 0 -6 5 -4 10 4 6 9 10
10 10 3 0 -20 -18 -24 -28 -7 -6 11 -12 13 -16 6 -4 -6 -13 -9 -21 -6 -8 4
-12 11 -8 17 3 6 1 7 -6 3 -9 -6 -9 -11 0 -22 11 -13 9 -13 -14 -3 -15 7 -24
16 -20 22 4 6 1 7 -8 1 -19 -12 -52 -12 -62 1 -6 6 -7 4 -4 -6 5 -16 -18 -20
-41 -5 -6 4 -12 5 -12 1 0 -3 -9 -1 -21 5 -18 10 -19 10 -10 -8 7 -14 7 -19
-4 -19 -8 0 -12 4 -9 9 3 4 0 8 -6 8 -6 0 -8 5 -4 12 4 7 3 8 -5 4 -6 -4 -9
-11 -6 -16 7 -12 -20 -19 -36 -9 -20 12 -31 11 -23 -3 5 -7 3 -8 -7 -2 -19 12
-29 12 -59 1 -14 -5 -36 -10 -50 -12 -14 -1 -24 -7 -22 -13 3 -17 -3 -15 -19
5 -8 10 -9 14 -2 10 6 -4 14 -3 18 3 4 6 11 7 17 4 7 -4 8 -2 4 5 -5 8 -12 9
-19 3 -7 -5 -20 -8 -29 -7 -10 2 -21 -2 -25 -7 -4 -7 -1 -8 8 -3 8 5 11 4 6
-1 -4 -4 -24 -7 -44 -5 -27 2 -33 0 -27 -11 5 -9 2 -9 -11 2 -17 14 -18 13
-12 -2 3 -10 2 -18 -3 -18 -6 0 -10 8 -10 18 0 26 -11 34 -27 21 -9 -8 -10
-15 -3 -24 8 -10 8 -15 -1 -21 -7 -4 -9 -3 -6 3 4 6 -14 9 -46 9 -33 -1 -52
-5 -52 -13 0 -6 -3 -15 -7 -19 -4 -3 -6 3 -3 15 2 11 0 21 -6 21 -5 0 -9 -6
-9 -13 0 -8 -6 -14 -12 -15 -7 0 -26 -3 -43 -6 -21 -5 -26 -4 -15 3 8 5 18 7
24 4 5 -3 6 -1 2 5 -5 8 -13 9 -25 2 -12 -6 -22 -5 -31 3 -8 7 -5 -1 5 -18 13
-21 14 -26 3 -18 -8 7 -19 9 -23 5 -5 -4 -5 -1 0 7 6 10 4 12 -5 6 -7 -4 -15
-2 -20 5 -5 8 -9 7 -13 -5 -4 -9 -3 -13 2 -10 5 3 12 1 15 -4 3 -4 -4 -8 -17
-7 -13 1 -21 -4 -20 -11 4 -18 -2 -16 -18 4 -12 14 -12 16 0 8 9 -5 12 -4 7 3
-10 17 -36 3 -29 -16 3 -11 2 -13 -4 -6 -13 17 -53 24 -47 9 3 -7 0 -16 -7
-21 -8 -4 -10 -3 -5 4 4 7 3 12 -3 12 -5 0 -14 -7 -19 -16 -6 -11 -11 -13 -16
-5 -4 6 -14 11 -22 11 -10 0 -12 -5 -8 -12 5 -8 0 -7 -11 2 -11 9 -16 10 -11
3 4 -7 3 -13 -3 -13 -5 0 -12 6 -14 13 -3 7 -6 5 -6 -5 -1 -10 -5 -18 -11 -18
-5 0 -7 8 -4 18 5 16 5 16 -9 0 -8 -10 -17 -15 -20 -11 -4 3 -7 1 -7 -4 0 -6
3 -13 8 -16 4 -2 2 -2 -5 -1 -6 2 -14 0 -16 -4 -2 -4 -2 -2 -1 5 2 7 -2 15 -8
19 -7 5 -8 2 -3 -6 6 -10 4 -12 -9 -7 -14 6 -15 4 -5 -16 11 -19 10 -21 -3 -9
-10 8 -19 9 -22 3 -3 -5 -16 -7 -28 -3 -16 4 -19 2 -13 -9 7 -11 5 -11 -10 1
-11 9 -16 10 -11 3 4 -8 1 -13 -9 -13 -10 0 -13 5 -9 12 4 7 3 8 -4 4 -7 -4
-12 -15 -13 -24 0 -11 -2 -12 -6 -4 -3 9 -13 6 -35 -9 -23 -17 -32 -19 -38 -9
-6 9 -9 9 -15 0 -4 -6 -14 -9 -22 -6 -8 3 -11 1 -8 -4 3 -6 1 -10 -5 -10 -6 0
-9 -3 -7 -7 3 -5 -11 -8 -31 -7 -23 0 -44 -6 -55 -18 -21 -21 -37 -23 -37 -5
0 9 -2 9 -8 0 -4 -6 -14 -13 -22 -15 -8 -2 -21 -11 -28 -20 -7 -10 -19 -15
-29 -11 -12 5 -14 3 -8 -8 8 -12 6 -12 -9 0 -15 12 -17 12 -14 0 2 -9 -6 -14
-24 -13 -20 1 -25 -3 -21 -15 4 -9 3 -13 -2 -9 -4 4 -15 2 -23 -5 -11 -8 -14
-9 -9 0 5 8 1 11 -12 10 -10 0 -17 -7 -14 -13 3 -8 -4 -13 -19 -13 -48 -1 -63
-3 -50 -8 6 -3 12 -8 12 -13 0 -13 -29 -20 -36 -8 -5 7 -2 8 6 3 9 -5 11 -4 6
4 -6 9 -11 9 -22 0 -16 -13 -19 -33 -4 -24 6 3 10 2 10 -4 0 -5 -8 -10 -17
-10 -31 1 -54 -7 -62 -20 -5 -7 -11 -12 -15 -12 -20 3 -26 0 -20 -10 4 -7 -1
-7 -16 1 -18 10 -21 9 -15 -1 6 -9 3 -11 -9 -6 -11 5 -15 3 -10 -5 5 -7 0 -9
-14 -6 -16 5 -20 2 -17 -13 2 -10 -1 -22 -7 -25 -7 -4 -8 -2 -4 4 4 7 2 12 -3
12 -6 0 -11 -5 -11 -11 0 -8 -4 -8 -14 0 -12 10 -13 8 -9 -8 3 -13 1 -21 -6
-21 -7 0 -10 4 -7 8 3 5 -1 9 -9 9 -8 0 -17 -7 -19 -14 -4 -9 -1 -11 7 -7 8 5
8 2 -2 -9 -7 -9 -17 -15 -21 -12 -11 7 -31 -20 -22 -31 4 -5 -3 0 -16 11 -22
18 -23 18 -16 0 6 -15 4 -17 -10 -12 -14 6 -17 4 -12 -10 6 -14 4 -15 -5 -6
-15 15 -59 -11 -59 -36 0 -14 -2 -14 -10 -1 -8 13 -10 12 -10 -3 0 -10 -7 -20
-15 -23 -8 -4 -12 -11 -8 -18 3 -6 2 -8 -2 -3 -5 4 -16 0 -26 -9 -10 -9 -25
-14 -34 -11 -9 4 -15 1 -15 -7 0 -7 -10 -21 -22 -32 -12 -10 -18 -13 -13 -5 6
11 4 13 -9 8 -10 -4 -22 -7 -27 -7 -4 0 -5 -8 -2 -17 6 -16 5 -17 -12 -3 -10
8 -16 10 -12 4 3 -6 -1 -20 -9 -30 -9 -10 -13 -12 -9 -4 4 10 2 9 -8 -2 -8
-10 -17 -15 -20 -12 -6 7 -62 -33 -62 -44 0 -4 -6 -6 -12 -6 -7 1 -10 -2 -7
-7 3 -5 0 -9 -6 -9 -6 0 -9 -4 -5 -9 3 -5 1 -12 -5 -16 -5 -3 -10 -1 -10 6 0
7 -10 3 -23 -9 -13 -12 -27 -19 -31 -15 -4 5 -6 1 -4 -7 2 -8 -4 -14 -12 -15
-10 0 -14 -9 -13 -25 1 -14 0 -19 -3 -12 -3 6 -10 12 -15 12 -6 0 -7 -4 -4
-10 5 -9 -6 -14 -26 -12 -3 1 -6 -5 -6 -13 0 -8 5 -11 11 -8 6 3 6 0 -1 -7
-10 -11 -15 -11 -27 -1 -13 11 -15 10 -11 -7 3 -16 -1 -20 -16 -17 -16 3 -17
1 -9 -15 8 -16 8 -18 -5 -14 -11 4 -15 0 -15 -17 0 -22 0 -22 -15 -3 -15 19
-15 19 -8 0 5 -15 3 -18 -9 -14 -11 5 -14 0 -12 -18 1 -13 -2 -24 -7 -24 -5 0
-9 5 -9 11 0 5 -5 7 -11 4 -6 -4 -8 -14 -5 -22 4 -9 2 -11 -5 -7 -7 4 -10 1
-7 -7 3 -8 -2 -19 -11 -26 -20 -16 -34 -16 -25 -1 4 7 3 8 -4 4 -6 -4 -9 -13
-6 -21 4 -10 0 -13 -14 -10 -15 2 -19 -2 -16 -20 1 -17 -2 -22 -12 -18 -8 3
-11 10 -7 17 3 6 2 7 -2 3 -13 -11 -15 -38 -3 -31 7 4 8 2 4 -5 -4 -6 -15 -10
-23 -9 -9 2 -18 -4 -20 -12 -4 -12 -3 -12 5 -1 6 8 12 9 16 3 3 -6 -8 -15 -24
-21 -17 -5 -30 -13 -30 -16 0 -3 5 -3 10 0 6 3 10 1 10 -4 0 -6 -7 -11 -16
-11 -10 0 -14 -6 -10 -15 3 -8 0 -14 -7 -12 -7 1 -11 -4 -9 -12 2 -11 0 -12
-10 -3 -11 9 -14 7 -15 -9 -1 -12 3 -17 9 -13 7 5 8 2 3 -5 -5 -9 -10 -10 -18
-2 -13 13 -60 -46 -50 -63 4 -6 0 -5 -9 2 -13 10 -18 10 -24 1 -4 -7 -3 -9 3
-6 6 4 10 -3 10 -17 0 -18 -4 -23 -18 -21 -10 2 -22 -1 -25 -7 -4 -7 -2 -8 4
-4 7 4 12 2 12 -3 0 -11 -15 -15 -34 -12 -5 1 -3 -5 4 -14 11 -13 10 -14 -5
-9 -13 5 -16 4 -11 -4 4 -7 1 -12 -8 -12 -10 0 -13 -6 -9 -17 4 -10 2 -14 -4
-10 -6 4 -14 0 -17 -9 -4 -10 -2 -13 6 -8 7 4 8 3 4 -4 -4 -7 -14 -12 -23 -12
-13 0 -14 -2 -2 -17 12 -15 12 -16 -5 -10 -16 6 -17 5 -6 -8 11 -13 10 -14 -5
-9 -13 5 -16 4 -11 -4 4 -7 2 -12 -4 -12 -6 0 -9 -4 -6 -9 3 -5 -3 -11 -14
-14 -11 -3 -20 -12 -20 -21 0 -9 -5 -16 -11 -16 -5 0 -7 -4 -4 -10 3 -5 1 -10
-6 -10 -8 0 -8 -4 1 -15 11 -13 10 -14 -5 -9 -13 5 -16 4 -11 -4 4 -7 2 -12
-4 -12 -6 0 -9 -4 -6 -9 3 -5 -1 -12 -10 -15 -8 -3 -12 -10 -9 -16 3 -6 0 -13
-9 -16 -8 -3 -19 -19 -25 -35 -5 -16 -15 -29 -21 -29 -6 0 -8 -4 -5 -10 3 -5
1 -10 -6 -10 -9 0 -9 -3 0 -14 9 -11 9 -16 0 -22 -8 -5 -9 -3 -4 6 5 9 4 11
-3 6 -7 -4 -12 -16 -12 -27 0 -11 -4 -18 -8 -15 -5 3 -16 -4 -25 -15 -9 -10
-12 -19 -7 -19 5 0 7 -7 4 -15 -4 -8 -11 -12 -18 -8 -6 4 -4 -2 4 -12 8 -10
10 -16 3 -12 -16 10 -32 -22 -35 -70 -1 -10 -4 -10 -16 0 -13 10 -14 9 -3 -12
10 -19 10 -22 0 -16 -9 6 -11 2 -6 -14 4 -17 3 -20 -8 -11 -17 14 -28 -13 -12
-29 8 -8 6 -11 -7 -11 -15 0 -16 -3 -6 -15 10 -12 6 -20 -20 -44 -20 -18 -28
-31 -21 -36 6 -3 9 -11 5 -16 -3 -5 -11 -6 -17 -2 -8 4 -7 1 1 -9 10 -13 10
-18 1 -24 -8 -5 -9 -3 -4 6 5 8 4 11 -3 6 -6 -4 -9 -13 -5 -21 4 -11 0 -14
-13 -10 -11 3 -9 1 4 -7 l23 -12 -23 -12 c-13 -8 -17 -13 -10 -14 6 0 12 -4
12 -10 0 -5 -7 -7 -15 -4 -11 5 -13 2 -8 -12 5 -13 3 -15 -8 -9 -12 7 -12 6
-1 -7 11 -14 11 -18 0 -25 -7 -4 -13 -15 -13 -23 0 -8 -6 -14 -13 -12 -8 1
-11 -2 -7 -8 3 -6 10 -8 14 -6 4 3 8 -1 8 -9 0 -8 -4 -12 -9 -9 -4 3 -8 0 -8
-6 0 -6 -4 -9 -8 -6 -5 3 -8 -20 -8 -50 1 -31 -4 -59 -10 -62 -6 -4 -15 -18
-19 -32 -7 -23 -7 -24 11 -10 19 14 19 14 0 -7 -10 -13 -22 -20 -27 -18 -4 3
-11 0 -15 -6 -4 -8 -3 -9 4 -5 7 4 12 1 12 -8 0 -9 -3 -16 -7 -16 -5 0 -9 -21
-11 -47 -1 -26 -6 -50 -10 -53 -10 -8 -15 -43 -4 -36 5 3 9 -2 9 -10 0 -8 -6
-13 -13 -10 -8 3 -16 0 -20 -6 -4 -6 -3 -8 4 -4 6 3 13 2 17 -4 3 -5 1 -10 -6
-10 -8 0 -7 -5 2 -17 8 -10 9 -14 2 -10 -6 4 -14 3 -18 -3 -3 -5 -2 -10 2 -10
5 0 9 -9 10 -20 1 -11 -3 -20 -8 -20 -6 0 -8 4 -4 9 3 5 2 12 -3 15 -4 2 -7
-12 -6 -32 1 -23 6 -36 14 -34 6 1 9 -2 5 -7 -3 -6 -11 -9 -18 -7 -7 1 -9 1
-4 -1 4 -3 7 -11 7 -19 0 -9 -4 -13 -8 -10 -5 3 -9 -1 -9 -9 0 -8 4 -12 9 -9
12 8 6 -29 -6 -38 -6 -4 -5 -12 3 -21 9 -12 9 -17 0 -23 -8 -4 -9 -3 -5 4 5 8
1 10 -9 6 -14 -6 -13 -9 5 -29 15 -16 18 -25 10 -30 -8 -5 -8 -11 1 -21 7 -9
8 -14 3 -13 -20 4 -39 -2 -29 -9 6 -4 17 -16 25 -27 l15 -20 -24 20 c-14 11
-21 14 -17 8 4 -7 9 -23 11 -35 4 -22 4 -22 -10 -4 -8 11 -15 16 -15 10 0 -14
13 -30 30 -37 12 -4 12 -6 -2 -6 -12 -1 -15 -6 -11 -18 5 -11 3 -14 -6 -8 -10
6 -11 3 -2 -14 14 -25 23 -28 15 -3 -5 14 -4 14 4 2 12 -16 6 -33 -9 -25 -17
11 -9 -14 8 -25 17 -11 17 -11 1 -6 -10 3 -18 1 -18 -4 0 -6 5 -10 10 -10 6 0
10 -5 10 -11 0 -5 -6 -7 -13 -3 -6 4 -1 -5 13 -21 l25 -28 -27 18 c-34 21 -36
14 -6 -15 17 -16 18 -19 5 -15 -10 4 -17 2 -17 -4 0 -6 8 -11 18 -12 14 0 14
-2 -3 -9 -14 -6 -15 -9 -5 -10 10 -1 9 -4 -5 -10 -15 -6 -16 -9 -4 -9 9 -1 21
-13 28 -28 l13 -28 -22 23 c-11 12 -26 22 -33 21 -9 0 -9 -2 1 -6 6 -2 9 -10
6 -15 -4 -6 -3 -8 2 -5 6 3 16 -4 24 -16 11 -19 11 -20 -1 -10 -10 8 -19 9
-29 1 -13 -8 -13 -9 1 -5 9 3 21 -4 28 -15 11 -17 10 -18 -8 -8 -17 9 -20 8
-15 -5 6 -14 18 -19 37 -16 5 1 6 -3 2 -8 -3 -6 -13 -7 -23 -4 -9 3 -14 3 -10
-2 4 -4 3 -14 -4 -22 -9 -11 -7 -12 8 -6 16 6 17 4 7 -8 -15 -19 -13 -61 3
-55 11 4 11 -5 0 -84 -1 -8 -6 -22 -11 -30 -5 -9 1 -7 14 5 l22 19 -10 -27
c-8 -19 -7 -27 0 -27 8 0 7 -5 -1 -15 -9 -10 -9 -15 -1 -15 6 0 11 -5 11 -11
0 -5 -6 -7 -12 -4 -7 4 -2 -4 12 -16 14 -13 18 -20 9 -16 -13 4 -16 0 -15 -17
1 -16 6 -22 16 -18 13 5 13 4 0 -10 -8 -9 -19 -14 -25 -11 -5 2 0 -4 12 -13
22 -16 33 -41 13 -29 -5 3 -10 1 -10 -4 0 -6 5 -11 10 -11 6 0 10 -9 10 -20 0
-11 -6 -20 -12 -20 -10 0 -10 -2 0 -9 17 -11 17 -21 0 -33 -10 -8 -10 -9 2 -5
8 2 14 14 14 26 -2 33 10 15 12 -19 1 -16 -2 -33 -8 -36 -6 -4 -8 -3 -5 3 3 5
0 10 -8 10 -12 0 -12 -4 -3 -16 7 -9 19 -22 27 -28 9 -8 10 -13 3 -13 -13 0
-5 -28 14 -47 7 -7 10 -22 7 -33 -4 -13 1 -27 13 -36 11 -9 13 -13 6 -9 -6 3
-12 1 -12 -4 0 -6 6 -11 13 -11 6 0 3 -8 -8 -16 -19 -16 -19 -16 5 -9 22 7 23
6 11 -9 -12 -14 -12 -16 5 -10 18 5 18 5 0 -10 -15 -12 -16 -16 -5 -16 12 0
12 -2 -1 -10 -10 -6 -11 -10 -2 -10 6 0 12 -5 12 -11 0 -5 -6 -7 -12 -3 -7 4
-9 3 -5 -1 4 -5 14 -10 22 -12 8 -2 22 -4 30 -6 8 -2 17 -6 20 -10 3 -4 2 -5
-2 -2 -3 3 -13 -1 -21 -8 -9 -6 -13 -7 -9 -1 3 6 0 11 -7 11 -7 0 -13 -6 -13
-13 0 -7 3 -12 7 -11 4 1 20 -14 36 -33 16 -19 22 -30 13 -23 -12 10 -17 8
-26 -6 -9 -14 -8 -18 3 -18 7 0 11 4 8 9 -3 4 -3 8 0 8 3 0 10 -10 17 -21 7
-15 8 -19 0 -15 -7 4 -9 1 -5 -7 3 -8 15 -18 26 -21 21 -5 21 -5 -2 -24 -18
-14 -20 -21 -10 -27 9 -5 11 -4 6 3 -4 7 -1 12 9 12 12 0 15 -6 10 -20 -5 -16
-3 -19 12 -13 14 5 13 0 -7 -23 -14 -15 -17 -22 -7 -14 16 12 20 12 28 -1 5
-8 9 -18 9 -24 0 -5 -5 -3 -10 5 -7 11 -8 7 -6 -15 3 -31 19 -44 32 -24 5 9 2
10 -10 6 -11 -4 -15 -3 -11 4 10 14 28 6 31 -14 1 -9 -1 -15 -6 -12 -4 3 -10
-4 -13 -15 -4 -17 -2 -18 15 -9 13 7 18 7 14 1 -3 -6 -2 -13 4 -17 6 -4 7 -13
1 -23 -7 -13 -4 -25 11 -42 l20 -25 -16 28 c-15 25 -15 27 0 27 10 0 14 -3 11
-7 -4 -3 0 -17 9 -31 10 -15 14 -36 11 -56 -3 -17 -3 -25 0 -18 5 13 24 17 22
4 -4 -21 2 -32 14 -26 9 6 9 4 -1 -8 -10 -13 -10 -17 0 -21 10 -4 10 -7 1 -14
-9 -6 -7 -12 8 -22 12 -7 19 -8 15 -3 -3 5 1 9 8 9 13 0 15 -24 3 -44 -5 -7 0
-9 15 -5 l23 5 -20 -24 c-15 -18 -16 -20 -2 -10 11 9 17 10 17 2 0 -22 2 -26
16 -34 8 -4 19 -5 26 -1 7 5 8 3 4 -5 -5 -7 -14 -10 -22 -7 -7 3 -16 2 -18 -3
-3 -4 1 -8 9 -9 8 -1 21 -3 29 -4 10 -1 13 -12 11 -36 -2 -21 0 -30 5 -22 11
17 31 3 23 -17 -5 -11 -3 -14 6 -8 11 6 11 3 1 -16 l-13 -24 24 20 c18 16 21
16 10 2 -17 -21 -7 -35 13 -18 11 9 16 9 22 0 4 -7 3 -9 -3 -6 -6 4 -19 -3
-29 -14 -17 -19 -17 -20 1 -13 15 6 17 4 12 -10 -4 -10 -3 -15 3 -11 9 6 14
-8 11 -28 -1 -5 3 -6 9 -2 6 3 8 12 4 18 -6 13 13 -9 35 -42 8 -11 17 -18 21
-16 3 2 7 -5 8 -16 1 -10 3 -27 4 -38 2 -12 8 -16 20 -13 13 3 18 -1 18 -16 0
-12 5 -24 12 -28 8 -5 9 -1 4 12 -6 15 -5 16 5 7 10 -10 9 -15 -1 -27 -10 -13
-9 -17 4 -22 9 -3 13 -11 10 -16 -4 -6 2 -5 14 1 30 16 39 14 16 -4 -12 -10
-14 -14 -5 -13 10 2 17 -8 21 -27 3 -16 9 -29 13 -27 8 3 67 -26 67 -34 0 -2
-9 0 -21 6 -11 7 -23 9 -27 6 -3 -3 0 -6 7 -6 7 0 9 -5 5 -12 -4 -6 -3 -8 4
-4 6 3 14 1 17 -5 4 -5 13 -8 21 -5 8 3 13 2 13 -2 -4 -28 3 -42 24 -43 21 0
21 -1 2 -9 -16 -7 -17 -9 -3 -9 9 -1 19 -7 22 -13 5 -11 7 -11 12 0 3 6 10 12
15 12 6 0 3 -10 -5 -22 -21 -29 -21 -47 0 -22 13 16 15 16 10 2 -3 -12 0 -18
10 -18 8 0 13 -4 9 -9 -3 -5 0 -13 6 -17 8 -4 9 -3 5 4 -4 7 -2 12 3 12 11 0
14 -11 12 -40 0 -9 2 -10 5 -3 7 16 34 5 34 -14 0 -8 5 -11 10 -8 13 8 13 -8
0 -21 -7 -7 -4 -10 12 -10 18 1 22 -4 19 -19 -3 -20 -3 -20 20 0 12 11 19 15
16 9 -4 -7 0 -17 9 -24 8 -7 13 -19 10 -27 -3 -7 1 -13 9 -13 14 0 19 -12 16
-32 -1 -8 15 -12 38 -8 9 1 12 -4 8 -14 -6 -14 -3 -15 16 -5 21 12 21 11 7 -6
-9 -11 -10 -16 -3 -11 8 4 17 -2 25 -18 9 -22 14 -24 26 -13 13 10 15 9 9 -5
-5 -13 0 -19 18 -24 14 -3 22 -10 19 -15 -7 -12 10 -11 22 1 7 7 11 6 11 -4 0
-8 -4 -13 -9 -10 -4 3 -8 0 -8 -7 0 -6 8 -9 20 -6 17 4 18 2 9 -15 -10 -18 -9
-18 10 -8 22 11 26 5 21 -30 -1 -11 3 -10 20 5 l23 20 -13 -25 c-12 -23 -12
-24 4 -11 15 13 18 12 23 -8 4 -17 8 -19 14 -9 7 10 9 11 9 0 0 -8 5 -10 13
-6 9 6 9 4 -1 -7 -17 -19 -15 -34 4 -19 13 11 16 10 21 -8 3 -12 10 -22 15
-22 5 0 6 -5 2 -12 -4 -7 -3 -8 5 -4 9 6 9 11 0 22 -10 12 -9 13 5 8 9 -3 16
-10 16 -16 0 -5 6 -6 13 -2 7 5 6 0 -3 -11 -9 -11 -10 -16 -3 -11 8 4 13 2 13
-6 0 -9 3 -9 10 2 8 12 10 10 11 -10 l1 -25 8 25 c6 18 8 20 9 7 1 -10 7 -25
15 -33 16 -15 30 -19 22 -6 -3 5 1 9 9 9 13 0 13 -3 0 -17 -13 -15 -13 -17 0
-17 8 0 15 4 15 9 0 5 5 6 10 3 8 -5 7 -12 -2 -23 -11 -15 -10 -15 8 0 19 16
20 16 21 -3 1 -12 -3 -17 -9 -13 -7 4 -8 2 -4 -5 6 -9 11 -9 22 0 11 9 14 9
14 0 0 -7 5 -9 12 -5 8 5 9 2 4 -12 -4 -10 -4 -15 0 -11 4 4 14 1 22 -6 13 -9
14 -9 8 0 -5 9 -2 11 8 7 9 -3 13 -11 9 -17 -4 -6 2 -8 15 -5 13 4 19 2 16 -6
-3 -7 5 -21 17 -32 13 -10 19 -14 16 -8 -11 19 20 24 35 6 12 -15 11 -16 -4
-3 -12 8 -18 9 -18 2 0 -11 27 -21 66 -23 17 -2 20 -8 18 -33 -1 -16 0 -24 3
-17 2 6 9 10 14 7 5 -4 6 2 4 12 -3 10 0 8 7 -5 8 -16 18 -22 31 -18 14 3 17
0 13 -12 -5 -13 -2 -12 10 3 16 19 16 19 10 -10 -4 -16 -3 -25 2 -18 8 13 54
14 46 1 -3 -4 9 -6 26 -4 23 3 28 0 21 -7 -21 -21 -12 -37 19 -33 22 2 35 -2
44 -16 10 -14 15 -16 19 -6 3 8 6 5 6 -7 1 -17 3 -17 11 -5 8 12 10 12 10 -5
0 -17 2 -17 10 -5 9 14 14 7 11 -13 -1 -5 4 -5 11 -1 28 18 40 13 21 -8 l-18
-21 30 19 c29 18 30 18 15 0 -14 -18 -14 -19 9 -7 13 7 21 9 17 3 -3 -5 1 -13
10 -16 10 -4 13 -2 8 7 -4 6 3 2 16 -11 12 -13 29 -21 37 -18 9 4 11 2 7 -6
-5 -7 0 -9 14 -6 12 4 20 2 17 -2 -3 -5 -1 -11 4 -14 5 -4 12 2 14 11 4 17 5
17 6 1 0 -10 6 -18 12 -18 5 0 7 -5 3 -12 -4 -7 -3 -8 4 -4 6 4 9 14 6 24 -4
9 4 4 16 -13 12 -16 20 -23 17 -14 -3 9 1 16 9 16 7 0 10 -5 7 -10 -4 -6 1 -8
11 -4 9 4 15 3 12 -1 -2 -4 -1 -14 5 -22 7 -12 9 -9 10 10 0 14 3 19 6 12 2
-6 10 -9 16 -6 8 5 8 3 0 -6 -18 -20 14 -41 44 -29 15 6 27 4 37 -6 7 -8 30
-15 49 -17 20 -1 33 -6 31 -10 -3 -4 2 -8 11 -8 10 0 13 5 9 12 -5 9 -2 9 9
-1 18 -14 23 -26 8 -16 -5 3 -12 1 -15 -4 -7 -11 13 -9 31 2 7 5 22 2 34 -7
12 -8 27 -12 33 -10 7 3 18 -5 25 -18 6 -13 9 -15 6 -5 -3 10 -1 15 5 12 6 -3
10 -1 10 6 0 7 6 5 13 -6 8 -10 19 -15 26 -11 8 5 11 2 9 -9 -2 -12 4 -19 19
-20 12 -1 20 2 17 7 -3 4 0 8 5 8 6 0 11 -5 11 -11 0 -8 6 -7 17 2 15 12 16
12 10 -4 -5 -14 -3 -16 12 -8 10 6 21 8 24 4 4 -3 15 0 24 8 10 7 15 10 11 5
-9 -10 41 -58 53 -50 9 5 3 24 -7 24 -3 0 -2 -5 2 -12 4 -7 3 -8 -5 -4 -6 4
-9 11 -6 16 8 13 45 -11 38 -25 -4 -5 -3 -7 2 -3 4 4 15 2 23 -5 13 -10 14 -9
4 10 -14 26 -15 45 -1 21 6 -11 16 -15 27 -11 15 6 15 5 3 -10 -8 -10 -11 -20
-7 -24 3 -3 6 -1 6 5 0 7 16 12 41 12 32 0 40 -3 35 -15 -3 -8 -1 -15 4 -15 6
0 10 4 10 10 0 5 8 6 17 3 13 -5 15 -2 10 13 -7 18 -6 18 7 2 15 -20 42 -25
30 -6 -4 7 -3 8 5 4 9 -6 9 -11 0 -22 -7 -8 -7 -14 -1 -14 5 0 15 7 23 16 12
14 14 14 26 -2 13 -17 98 -30 87 -13 -2 4 -13 6 -24 4 -11 -2 -20 0 -20 6 0 5
8 7 18 5 33 -6 52 -18 45 -29 -3 -5 -1 -7 5 -3 5 3 13 0 15 -6 4 -9 6 -8 6 3
1 8 -2 19 -6 25 -5 5 -1 1 9 -8 20 -22 32 -23 25 -4 -4 10 -1 13 9 9 7 -3 14
-9 14 -14 0 -5 8 -9 18 -9 10 0 23 -5 29 -11 8 -8 13 -7 18 2 6 8 4 10 -5 4
-8 -5 -11 -4 -6 3 6 10 54 7 65 -3 2 -3 10 3 18 13 12 16 13 15 6 -3 -6 -18
-5 -18 10 -7 14 12 16 11 12 -8 -3 -18 -2 -20 10 -10 8 7 20 10 27 7 7 -2 23
0 36 4 14 6 21 5 17 0 -3 -5 -1 -13 5 -16 6 -4 10 -3 9 2 -1 4 -1 15 0 23 1
13 3 13 10 0 6 -8 7 -19 3 -25 -3 -5 2 -4 11 4 10 8 20 11 24 8 3 -4 13 -1 21
6 13 10 14 9 7 -2 -6 -11 -4 -13 7 -8 9 3 21 0 27 -6 9 -9 10 -7 5 8 -7 18 -6
19 11 5 11 -9 16 -10 11 -2 -4 6 -3 12 3 12 5 0 12 -6 14 -12 4 -9 8 -9 14 -3
12 15 47 19 37 4 -5 -8 -3 -10 7 -3 7 4 28 9 46 10 24 1 33 -3 34 -15 0 -14 1
-14 7 -1 8 17 32 25 32 10 0 -5 7 -7 15 -4 8 4 12 11 8 17 -3 6 -1 7 5 3 7 -4
12 -15 13 -24 0 -14 2 -13 9 3 6 13 9 15 9 5 1 -13 2 -13 11 0 9 13 10 13 11
0 0 -10 3 -8 9 5 8 19 9 19 9 1 1 -16 3 -16 17 -5 13 10 17 10 25 -2 7 -11 9
-10 9 6 0 16 2 17 9 5 6 -8 7 -19 3 -25 -3 -5 1 -4 9 2 12 10 18 10 28 0 10
-9 11 -9 6 4 -3 9 2 22 11 30 12 9 15 10 10 1 -4 -7 -2 -12 4 -12 6 0 8 -5 4
-12 -5 -7 -3 -8 7 -2 8 4 20 9 28 11 8 1 18 8 23 15 7 10 8 9 4 -4 -6 -19 9
-34 19 -18 3 5 15 10 26 10 10 0 19 5 19 11 0 5 -5 7 -12 3 -7 -4 -8 -3 -4 4
9 16 38 2 32 -15 -4 -11 -1 -11 14 -3 11 6 20 13 20 16 0 3 -4 2 -10 -1 -16
-10 -11 1 7 16 9 8 14 9 10 3 -4 -7 1 -18 10 -25 12 -10 14 -10 9 -2 -9 17 5
19 58 9 14 -3 26 0 26 6 0 5 -7 7 -16 4 -8 -3 -12 -2 -9 4 6 10 46 7 66 -6 8
-5 9 -3 4 6 -6 10 -4 12 8 7 10 -4 21 1 27 11 11 16 11 16 6 0 -3 -10 -1 -18
4 -18 6 0 10 4 10 10 0 5 7 6 17 3 11 -4 14 -3 9 5 -4 7 -2 12 3 12 6 0 11 -5
11 -11 0 -5 4 -7 10 -4 5 3 10 1 10 -6 0 -7 3 -9 6 -6 4 4 1 14 -7 24 -13 15
-12 15 6 6 15 -9 22 -8 33 5 7 10 11 12 8 6 -3 -7 3 -14 15 -17 17 -5 18 -3 7
11 -7 9 -8 14 -3 9 4 -4 18 1 29 10 12 10 15 11 9 3 -19 -20 -16 -26 11 -26
14 0 22 4 20 8 -3 5 -10 5 -16 2 -7 -4 -8 -2 -4 5 4 6 12 9 17 5 5 -3 16 0 24
6 8 7 15 9 15 6 0 -4 10 -2 21 5 12 6 19 7 16 2 -3 -5 4 -15 16 -23 20 -12 21
-12 9 3 -8 9 -9 18 -4 21 6 3 13 -2 17 -12 6 -16 8 -15 23 4 21 26 32 27 56 6
19 -17 19 -16 0 13 l-18 30 24 -20 c13 -11 20 -15 17 -9 -10 17 21 26 44 14
20 -11 24 -4 19 30 -1 8 1 12 5 8 3 -3 8 -13 9 -22 3 -24 21 -20 21 4 0 11 5
20 10 19 6 0 9 -8 7 -17 -1 -10 4 -7 12 8 9 14 15 21 16 16 0 -6 4 -6 10 0 14
14 72 5 63 -9 -3 -6 -1 -7 6 -3 6 4 9 12 6 17 -4 5 2 9 12 10 35 1 58 8 61 18
5 15 42 14 42 -1 0 -7 5 -5 11 5 6 10 15 14 22 10 7 -4 5 2 -3 12 -14 17 -14
18 8 6 21 -11 24 -10 29 8 3 12 8 22 12 22 3 1 16 3 27 4 12 1 28 6 35 11 8 5
19 9 24 9 6 1 9 7 7 14 -1 8 2 10 10 4 7 -4 16 -8 20 -8 3 0 10 -4 15 -9 5 -5
2 -6 -6 -1 -10 5 -12 4 -7 -4 11 -17 25 -4 21 19 -2 12 0 18 5 15 5 -3 11 -1
14 4 8 12 59 11 67 -1 3 -5 9 -3 12 6 3 8 1 18 -5 22 -7 5 -8 2 -3 -6 5 -9 4
-11 -4 -6 -20 13 -2 26 24 16 20 -7 28 -5 42 13 20 24 49 36 37 15 -4 -7 -4
-10 1 -6 4 4 14 0 22 -10 13 -15 13 -15 3 6 -8 16 -8 27 0 40 11 16 11 16 6 0
-8 -25 8 -22 28 4 15 20 16 20 11 3 -3 -11 -3 -16 1 -12 4 4 14 1 23 -6 14
-11 15 -10 1 7 -14 18 -13 19 2 13 12 -4 15 -2 12 8 -10 25 5 36 29 23 20 -10
21 -10 8 6 -12 14 -12 16 3 10 11 -4 15 -2 13 7 -2 8 -2 11 0 6 3 -4 10 -4 16
0 25 16 46 13 41 -5 -5 -16 -5 -16 6 1 6 9 9 21 5 26 -3 5 -1 12 4 15 5 4 13
1 17 -5 5 -8 3 -9 -6 -4 -8 5 -11 4 -7 -3 8 -12 32 -10 44 3 4 4 3 5 -3 2 -7
-4 -14 0 -17 8 -4 10 -1 12 10 8 12 -5 14 -3 8 7 -5 8 -4 11 3 6 5 -3 13 0 16
6 3 7 3 2 0 -11 -6 -21 -4 -22 9 -10 11 10 12 19 5 34 -9 16 -8 18 3 8 18 -18
32 -16 25 3 -6 15 -3 14 21 -1 l28 -18 -19 29 -19 29 23 -20 c13 -11 21 -15
18 -10 -8 15 49 58 58 44 4 -7 3 -9 -3 -6 -6 4 -16 0 -22 -7 -9 -10 -9 -16 -1
-21 6 -4 9 -1 8 6 -2 7 4 13 12 14 8 0 14 8 12 18 -2 12 2 15 13 11 11 -5 18
0 22 15 5 20 6 20 19 4 11 -14 13 -14 9 -2 -3 9 1 22 9 29 9 7 13 17 10 22 -3
5 3 4 14 -3 12 -7 18 -17 15 -23 -3 -5 -1 -6 6 -2 8 5 9 12 2 20 -10 12 1 16
57 19 15 1 19 4 12 11 -14 14 -12 26 4 26 8 0 18 9 21 20 3 11 11 20 17 20 7
0 7 -4 -1 -13 -8 -10 -7 -14 4 -14 8 0 12 4 9 9 -3 4 0 8 6 8 6 0 8 5 4 12 -5
8 -2 9 9 5 16 -6 23 8 18 36 0 4 2 6 6 6 19 -3 34 2 29 9 -3 5 1 9 9 9 8 0 12
-5 9 -11 -3 -6 1 -3 9 7 8 9 19 17 25 17 6 0 14 4 17 10 3 6 -1 7 -12 4 -17
-5 -17 -5 0 6 9 6 22 8 29 4 7 -5 8 -3 3 6 -6 10 -4 12 10 6 15 -5 16 -4 5 9
-7 9 -10 18 -6 22 3 3 6 1 6 -5 0 -16 13 -15 36 4 10 8 14 13 7 10 -6 -4 -15
-1 -19 5 -4 7 -3 9 4 5 6 -3 13 -2 17 4 3 5 11 10 16 10 6 0 7 -5 3 -12 -4 -7
-3 -8 4 -4 9 5 9 13 0 29 -10 20 -10 21 5 8 12 -9 17 -10 17 -2 0 7 3 10 8 8
9 -5 42 30 35 37 -4 3 -1 6 6 6 7 0 9 4 6 10 -3 5 0 7 8 4 8 -3 21 2 30 10 8
8 18 12 23 8 5 -4 2 1 -5 10 -11 15 -10 17 8 13 11 -2 23 0 26 6 4 5 1 9 -5 9
-7 0 -5 6 4 15 8 8 20 15 26 15 6 0 8 5 4 12 -5 8 -2 9 9 5 9 -3 19 -1 23 5 4
7 3 8 -4 4 -7 -4 -12 -2 -12 3 0 10 14 15 33 12 4 -1 15 15 23 34 8 19 19 35
25 35 5 0 7 5 3 12 -4 6 -3 8 4 4 6 -3 17 1 26 10 9 8 21 12 27 8 7 -4 9 -3 5
4 -3 5 0 13 6 15 10 4 10 6 0 6 -7 1 -10 6 -7 11 5 8 11 7 21 -1 12 -10 13 -9
7 6 -5 14 -3 17 9 12 12 -4 15 0 13 18 -1 14 1 22 6 19 4 -2 13 4 19 15 6 13
17 18 28 15 14 -5 15 -4 2 5 -8 6 -10 11 -5 11 6 0 3 5 -5 11 -12 8 -10 9 7 4
18 -5 21 -3 18 15 -3 17 0 20 16 15 11 -4 19 -3 18 2 -3 19 2 33 12 33 5 0 7
-6 3 -12 -5 -9 -2 -8 9 1 10 8 15 16 12 19 -3 3 1 12 8 21 11 14 10 14 -5 2
-10 -7 -15 -18 -11 -24 3 -6 1 -7 -6 -3 -8 6 -9 12 -2 20 6 7 8 16 5 19 -4 3
5 4 20 1 20 -3 24 -1 20 11 -4 10 0 15 15 15 12 0 20 3 19 8 -3 13 38 72 46
65 4 -4 4 0 1 9 -4 10 1 21 12 29 28 21 52 60 46 75 -3 9 1 14 12 14 10 0 13
-5 9 -12 -4 -7 -3 -8 5 -4 9 6 9 11 0 22 -9 11 -8 15 4 20 9 3 14 14 12 25 -2
11 0 17 6 14 5 -4 14 -3 20 1 8 4 7 9 -2 15 -11 7 -10 9 4 9 10 0 15 5 12 10
-4 6 -11 7 -17 4 -7 -4 -8 -2 -4 5 4 6 12 9 17 6 5 -4 9 -2 9 4 0 6 7 8 15 5
8 -4 15 -1 15 6 0 6 -4 9 -9 5 -6 -3 -9 3 -8 14 1 14 5 17 13 10 9 -8 12 -4
10 16 -3 19 0 23 9 15 9 -7 15 -7 19 -1 4 5 1 13 -4 16 -8 5 -6 13 6 26 9 10
13 19 8 19 -5 1 2 7 16 15 14 8 19 14 13 15 -7 0 -13 5 -13 11 0 6 9 8 23 4
19 -5 20 -5 4 5 -14 9 -16 15 -6 26 9 11 15 12 26 3 11 -10 12 -9 7 5 -3 9 -1
16 6 16 6 0 8 5 5 11 -4 6 -14 8 -24 5 -12 -5 -11 -2 3 9 11 8 29 13 40 9 14
-3 17 -2 8 3 -18 13 -11 65 10 71 25 6 23 22 -2 17 -12 -2 -18 0 -15 6 4 5 10
7 15 4 4 -3 16 7 25 21 9 15 12 24 7 20 -6 -3 -14 -1 -18 5 -4 8 -3 9 4 5 7
-4 12 -2 12 4 0 6 5 8 12 4 8 -5 9 -2 5 10 -5 12 -2 16 10 14 9 -2 17 5 18 15
2 9 -1 15 -6 11 -5 -3 -6 -10 -3 -16 5 -7 2 -8 -5 -4 -9 6 -9 12 3 25 9 10 16
25 16 34 0 9 4 17 8 17 4 0 8 10 9 22 1 11 7 24 14 28 8 6 8 9 -2 13 -10 4
-10 6 -1 6 13 1 17 27 5 34 -5 2 -3 2 4 1 7 -2 15 1 18 6 4 6 2 10 -3 10 -5 0
-9 7 -9 15 0 12 3 12 16 2 12 -9 13 -9 7 1 -4 6 -2 12 3 12 6 0 11 5 11 11 0
5 -4 8 -8 5 -5 -3 -9 1 -9 8 0 9 7 12 16 8 14 -5 14 -3 3 10 -11 14 -10 20 5
35 11 11 17 25 15 31 -2 7 2 12 10 12 10 0 9 3 -2 10 -10 6 -11 10 -2 10 6 0
12 5 12 11 0 5 -6 7 -12 3 -10 -6 -10 -5 -1 7 6 8 11 18 11 22 0 5 4 12 8 15
4 4 4 2 0 -5 -3 -6 -2 -14 3 -17 10 -7 9 20 -2 30 -3 4 -2 15 4 26 5 10 7 23
4 28 -3 6 0 10 8 10 7 0 14 7 14 15 0 12 -3 12 -16 2 -14 -10 -14 -10 -4 4 7
9 10 19 6 23 -4 4 0 4 9 1 12 -5 15 0 13 25 -2 19 3 34 12 39 11 6 12 10 4 16
-9 5 -9 10 0 21 6 8 8 14 3 14 -4 0 1 7 12 16 10 8 13 13 7 9 -7 -3 -13 -1
-13 5 0 6 -5 8 -12 4 -9 -5 -9 -2 1 9 15 18 26 23 16 7 -3 -6 1 -7 9 -4 14 5
14 8 1 21 -9 8 -13 19 -10 24 9 14 17 11 9 -3 -5 -10 -3 -10 7 0 12 11 12 14
-1 22 -13 9 -13 10 0 10 13 0 13 2 1 9 -12 8 -12 12 -2 25 7 9 18 13 25 9 6
-3 6 0 -1 8 -7 7 -13 21 -13 32 0 12 4 16 13 11 10 -6 10 -4 0 7 -14 14 -18
33 -5 25 9 -5 8 41 -1 50 -6 7 12 44 28 57 6 5 1 6 -11 3 -14 -4 -21 -2 -21 8
0 8 6 12 12 9 9 -3 11 6 9 28 -2 18 1 38 8 46 9 11 9 17 -3 24 -12 8 -12 10 1
19 13 8 13 11 1 19 -8 5 -10 14 -5 22 12 20 14 59 2 59 -6 0 -6 6 2 15 9 11 9
15 1 15 -9 0 -9 5 -1 20 6 11 7 20 3 20 -10 0 -10 41 1 58 4 7 3 12 -3 12 -6
0 -8 7 -5 15 4 8 11 12 18 9 6 -3 2 2 -9 11 -14 13 -16 19 -7 22 10 4 10 8 0
21 -10 12 -10 14 0 8 6 -4 12 -2 12 3 0 6 -5 11 -11 11 -5 0 -7 5 -3 12 13 21
10 59 -6 69 -13 9 -12 10 2 5 18 -5 36 10 19 16 -6 1 -11 14 -13 28 -2 14 -7
31 -11 38 -5 6 -4 12 2 12 6 0 7 7 4 17 -5 12 -3 14 7 8 9 -5 11 -4 6 3 -4 7
-15 12 -24 13 -11 1 -8 4 8 9 17 6 19 8 7 9 -14 1 -16 5 -7 20 7 14 7 22 -2
27 -7 5 -8 3 -3 -6 5 -9 4 -11 -4 -6 -6 4 -8 13 -4 19 14 22 11 75 -4 70 -7
-3 -13 0 -13 6 0 6 8 11 17 11 9 0 13 3 9 7 -4 5 -13 8 -18 8 -6 0 -12 6 -14
13 -1 7 0 8 3 2 2 -5 9 -8 14 -4 5 3 5 13 -1 24 -5 10 -7 26 -4 34 4 9 1 16
-6 16 -9 0 -9 4 1 17 8 9 9 14 4 11 -6 -4 -15 9 -21 28 -9 28 -9 32 2 23 20
-17 17 -6 -5 20 -15 17 -17 28 -11 52 7 25 7 29 -4 20 -10 -9 -13 -6 -11 13 2
14 6 29 9 34 3 6 -1 13 -10 16 -8 3 -13 2 -10 -2 3 -5 -1 -9 -9 -9 -12 0 -12
4 2 20 17 20 17 20 -1 13 -20 -7 -20 -7 0 15 10 12 13 19 7 15 -12 -6 -18 5
-14 27 0 4 -4 7 -9 7 -6 0 -10 5 -10 11 0 5 4 8 8 5 10 -6 9 25 -2 42 -4 7 -2
12 5 12 7 0 10 3 7 6 -4 3 -17 0 -30 -7 -23 -12 -23 -12 -4 10 11 11 14 21 8
21 -15 0 -16 32 -1 47 7 7 4 10 -13 9 -20 -1 -23 3 -23 39 0 30 -4 41 -17 43
-21 4 -24 42 -5 61 10 10 9 11 -4 6 -9 -3 -23 3 -34 15 -10 11 -15 20 -10 20
4 0 1 8 -6 17 -8 9 -9 14 -3 10 7 -4 15 0 18 9 9 24 7 27 -9 14 -9 -7 -18 -10
-22 -6 -3 3 -1 6 6 6 7 0 9 5 6 10 -4 6 -11 8 -16 5 -5 -3 -6 2 -2 11 5 13 3
15 -7 9 -9 -5 -11 -4 -6 4 4 6 11 9 16 6 5 -3 12 -1 15 5 4 6 3 10 -2 9 -21
-4 -24 2 -12 19 13 16 13 16 -7 0 -11 -10 -25 -18 -30 -18 -5 0 -3 4 4 9 7 4
15 20 16 35 3 21 1 24 -11 15 -11 -9 -17 -9 -26 1 -9 10 -9 11 1 6 19 -11 14
5 -10 32 -13 14 -18 22 -11 18 6 -3 14 -2 18 4 6 10 -6 14 -35 11 -8 -1 -4 5
9 12 20 12 21 15 7 20 -11 5 -15 3 -10 -5 4 -7 3 -8 -5 -4 -6 4 -8 13 -4 19
11 18 12 38 2 31 -5 -3 -6 -10 -3 -16 4 -7 2 -8 -4 -4 -6 4 -8 14 -5 23 4 11
3 14 -5 9 -7 -4 -12 -1 -12 9 0 12 5 15 16 11 14 -5 15 -4 4 9 -11 14 -14 13
-27 -2 -13 -17 -14 -16 -8 4 3 12 1 25 -6 29 -8 4 -9 3 -5 -4 4 -7 5 -12 2
-12 -3 0 -10 9 -16 19 -9 17 -7 19 11 16 12 -3 18 -1 15 3 -4 4 -12 8 -17 8
-5 1 -13 2 -17 3 -12 2 -11 33 1 51 9 12 9 13 -3 3 -18 -17 -27 -16 -33 1 -4
9 -1 14 6 12 7 -1 9 -1 5 1 -4 2 -4 12 -1 21 4 14 3 14 -5 3 -9 -12 -13 -12
-26 -2 -9 8 -16 19 -16 25 -1 6 -14 26 -30 45 -24 28 -27 38 -18 54 8 17 8 19
-6 14 -19 -7 -31 9 -15 19 8 5 9 3 4 -6 -6 -9 -4 -11 4 -6 13 9 6 21 -12 21
-7 1 -11 6 -10 13 2 7 -4 12 -12 12 -14 0 -20 13 -16 34 1 5 -5 4 -13 -4 -16
-12 -23 0 -9 14 13 12 11 33 -3 33 -11 0 -11 -3 -1 -16 10 -14 10 -14 -4 -4
-9 7 -20 9 -24 5 -5 -4 -1 6 9 21 17 28 17 28 -3 17 -28 -14 -40 -6 -36 25 2
22 0 23 -13 13 -13 -11 -14 -10 -3 10 7 13 10 26 7 30 -3 3 -6 0 -6 -6 0 -7
-5 -12 -11 -12 -5 0 -7 5 -4 10 3 6 1 10 -4 10 -6 0 -11 9 -11 20 0 20 -10 24
-40 20 -11 -1 -9 3 5 15 20 16 19 16 -5 9 -21 -6 -23 -4 -13 7 9 11 8 19 -3
33 -8 11 -14 15 -14 9 0 -6 -7 -14 -16 -17 -8 -3 -13 -2 -9 3 3 5 -2 17 -11
25 -8 9 -11 16 -5 16 5 0 14 -7 19 -16 8 -15 10 -15 15 0 4 9 1 15 -6 13 -7
-1 -11 4 -9 11 1 8 -2 11 -8 7 -5 -3 -13 1 -16 9 -3 9 -11 16 -16 16 -6 0 -6
-6 1 -14 8 -10 9 -16 1 -21 -6 -4 -9 -1 -8 7 2 7 -3 12 -11 10 -11 -2 -12 0
-3 10 8 10 6 22 -10 46 -23 36 -35 44 -16 10 14 -26 20 -53 10 -43 -4 4 -7 10
-7 13 0 14 -17 32 -24 27 -5 -2 -7 9 -5 25 2 20 -1 29 -9 27 -6 -1 -11 4 -9
11 2 9 -4 12 -17 7 -11 -3 -23 0 -27 6 -4 7 -3 9 4 5 6 -3 13 -3 16 2 8 13
-28 11 -37 -2 -5 -6 -5 0 -2 13 6 18 4 22 -6 15 -12 -6 -12 -5 -1 8 12 14 10
16 -10 11 -23 -5 -23 -5 -3 11 11 10 14 15 8 11 -7 -3 -21 -1 -30 4 -13 7 -14
10 -4 11 8 0 11 3 8 6 -4 4 -13 1 -22 -6 -12 -10 -15 -10 -15 4 0 9 5 16 12
16 6 0 8 3 5 6 -4 4 -13 2 -21 -5 -11 -9 -15 -8 -20 4 -4 11 -2 14 7 10 6 -4
3 0 -7 9 -10 8 -23 13 -27 10 -13 -7 -11 10 1 22 7 7 6 11 -5 11 -8 0 -15 -5
-15 -10 0 -6 -3 -7 -6 -4 -4 4 -1 14 7 23 12 15 11 16 -9 10 -22 -7 -26 -1
-23 34 1 9 -4 7 -11 -6 -13 -21 -13 -21 -33 -1 -20 20 -20 20 5 7 25 -13 25
-13 -3 17 -15 16 -24 33 -20 38 5 4 2 5 -5 1 -10 -6 -10 -11 -2 -21 8 -9 8
-15 0 -20 -6 -4 -9 -1 -8 7 2 7 -3 12 -10 10 -8 -1 -11 2 -7 9 6 9 -26 49 -40
49 -10 0 -50 45 -47 53 1 5 -3 5 -10 1 -17 -11 -38 -14 -37 -6 2 15 -14 52
-22 52 -5 0 -6 -8 -3 -17 5 -17 5 -17 -6 0 -6 9 -9 21 -6 25 4 7 -11 11 -53
14 -11 1 -11 3 1 12 13 10 12 14 -10 30 -14 11 -22 14 -18 8 4 -7 2 -12 -3
-12 -6 0 -11 5 -11 10 0 6 -9 10 -20 10 -11 0 -20 7 -20 15 0 8 -6 12 -13 9
-16 -6 -41 21 -33 35 3 5 -3 7 -14 4 -14 -4 -20 0 -20 11 0 10 -4 14 -10 11
-5 -3 -10 -1 -10 4 0 6 -3 10 -7 10 -5 -1 -15 -1 -23 0 -13 1 -13 2 0 11 8 5
10 10 4 10 -5 0 -16 -6 -23 -12 -10 -11 -12 -10 -9 2 2 9 -4 14 -15 14 -10 -1
-25 9 -34 22 -8 13 -20 21 -26 17 -6 -4 -8 0 -4 10 4 11 2 14 -9 10 -8 -3 -14
1 -14 8 0 11 -3 11 -10 -1 -8 -12 -10 -12 -10 5 -1 19 -1 19 -14 2 -11 -14
-15 -15 -19 -4 -3 8 0 20 6 27 10 10 8 10 -10 1 -31 -16 -40 -14 -17 5 18 15
18 15 -3 9 -19 -5 -22 -3 -16 11 5 13 3 15 -13 6 -22 -11 -54 6 -54 29 0 8 -6
6 -15 -7 -15 -18 -15 -18 -8 0 4 13 3 17 -5 12 -7 -4 -12 -2 -12 3 0 6 5 11
12 11 6 0 9 2 6 5 -3 3 -17 1 -32 -4 -18 -7 -26 -7 -26 0 0 6 -6 7 -12 3 -9
-5 -8 -2 1 9 12 15 12 17 -4 11 -13 -5 -16 -4 -11 4 5 8 -3 12 -26 13 -18 1
-37 1 -41 0 -5 -1 -6 3 -3 8 3 5 16 7 29 5 20 -4 20 -4 2 5 -12 5 -27 5 -37
-1 -12 -5 -18 -5 -18 2 0 5 5 10 10 10 6 0 10 4 10 10 0 6 -10 6 -27 -1 -36
-13 -57 6 -22 21 27 12 -1 8 -36 -5 l-20 -8 20 17 c19 16 19 16 -5 7 -27 -9
-77 8 -64 22 4 4 2 7 -4 7 -7 0 -12 -6 -13 -12 0 -7 -5 3 -11 22 -6 19 -13 29
-15 23 -7 -20 -21 -15 -29 9 l-6 21 -12 -20 c-9 -17 -13 -18 -23 -8 -6 7 -11
15 -10 17 1 2 -2 0 -7 -4 -12 -9 -48 10 -41 23 4 5 1 9 -4 9 -6 0 -11 -7 -11
-15 0 -8 -4 -15 -10 -15 -5 0 -7 7 -4 15 7 18 -7 20 -23 4 -9 -9 -11 -6 -7 12
5 21 4 22 -6 7 -12 -20 -30 -24 -30 -7 0 5 5 7 10 4 6 -3 10 1 10 9 0 16 -22
13 -50 -8 -13 -10 -13 -9 0 8 14 18 13 19 -3 13 -11 -4 -16 -3 -12 3 3 6 0 10
-7 10 -10 0 -9 3 2 11 13 9 13 10 0 6 -8 -2 -14 -11 -12 -20 1 -8 -2 -18 -8
-22 -6 -4 -10 -3 -9 2 5 28 -3 39 -28 39 -16 -1 -31 -5 -34 -9 -3 -5 -9 -1
-12 8 -5 10 -3 14 5 9 7 -4 8 -3 4 5 -6 9 -11 9 -24 -1 -13 -11 -14 -11 -8 0
6 10 3 13 -10 11 -11 -2 -30 3 -44 11 -14 7 -26 13 -27 12 -11 -7 -23 0 -17
11 5 7 0 6 -11 -3 -11 -9 -16 -10 -11 -2 4 7 1 12 -9 12 -9 0 -14 -4 -11 -9 4
-5 -2 -8 -11 -7 -9 2 -19 9 -21 17 -3 12 -2 12 6 0 7 -9 12 -10 16 -2 8 13 8
13 -21 16 -12 1 -20 -1 -18 -6 7 -10 -22 -5 -32 6 -4 4 -2 5 6 0 9 -5 12 -4 7
3 -4 6 -14 8 -24 5 -15 -6 -16 -5 -2 13 14 17 14 18 -2 6 -13 -10 -22 -11 -39
-2 -12 7 -19 8 -15 2 3 -5 -1 -13 -10 -16 -8 -3 -12 -2 -9 3 3 5 0 13 -7 18
-19 11 -39 13 -32 2 10 -16 -8 -9 -23 9 -7 9 -13 13 -12 7 3 -26 -3 -28 -17
-5 -8 14 -13 18 -11 10 3 -11 -2 -16 -18 -16 -13 0 -21 4 -19 8 3 5 10 5 16 2
7 -4 8 -2 4 5 -4 6 -12 8 -18 5 -6 -4 -15 0 -20 7 -8 11 -9 11 -5 -2 3 -9 1
-22 -5 -30 -8 -11 -9 -11 -5 3 3 9 -1 22 -9 28 -11 10 -14 9 -14 -6 0 -14 -3
-16 -9 -6 -9 14 -31 13 -44 -3 -5 -5 -5 1 -2 13 6 22 5 23 -16 12 -19 -10 -21
-10 -16 3 9 23 -3 28 -28 11 -20 -13 -24 -13 -38 1 -18 17 -31 20 -22 5 8 -13
-15 -9 -31 5 -15 15 -70 11 -66 -4 1 -7 -2 -10 -7 -6 -6 3 -7 13 -4 23 5 14 3
15 -8 5 -15 -15 -33 -18 -25 -5 3 5 -1 9 -9 9 -8 0 -11 -5 -8 -10 3 -6 1 -7
-6 -3 -6 4 -19 2 -28 -6 -9 -7 -14 -8 -11 -3 4 6 3 17 -3 25 -7 12 -9 11 -9
-5 0 -16 -2 -17 -9 -5 -6 8 -7 18 -4 24 4 5 1 6 -6 2 -7 -5 -10 -14 -8 -20 3
-7 -1 -13 -8 -13 -8 0 -12 9 -9 21 3 21 3 21 -11 2 -15 -20 -15 -20 -16 0 0
15 -2 16 -7 4 -9 -19 -72 -22 -72 -2 0 8 -5 10 -12 5 -18 -10 -58 -12 -64 -1
-3 4 -10 8 -15 8 -6 0 -8 -4 -4 -9 3 -6 -7 -8 -22 -7 -16 2 -28 5 -28 6 0 1
-8 3 -17 5 -12 2 -15 -2 -11 -13 4 -12 1 -11 -10 3 -9 11 -17 15 -17 8 0 -13
-18 -12 -39 1 -11 7 -13 5 -8 -7 9 -24 0 -21 -28 8 -16 19 -25 22 -31 14z
m-404 -35 c0 -8 -19 -13 -24 -6 -3 5 1 9 9 9 8 0 15 -2 15 -3z m-280 -14 c0
-5 -5 -10 -11 -10 -5 0 -7 5 -4 10 3 6 8 10 11 10 2 0 4 -4 4 -10z m1440 -14
c0 -2 -8 -10 -17 -17 -16 -13 -17 -12 -4 4 13 16 21 21 21 13z m970 -299 c0
-5 -4 -5 -10 -2 -5 3 -10 14 -10 23 0 15 2 15 10 2 5 -8 10 -19 10 -23z m21
-10 c-10 -9 -11 -8 -5 6 3 10 9 15 12 12 3 -3 0 -11 -7 -18z m-4161 -322 c-7
-8 -17 -15 -23 -15 -6 0 -2 7 9 15 25 19 30 19 14 0z m5035 -145 c3 -5 1 -10
-4 -10 -6 0 -11 5 -11 10 0 6 2 10 4 10 3 0 8 -4 11 -10z m-5339 -72 c4 -7 4
-10 -1 -6 -4 4 -15 2 -24 -5 -14 -11 -14 -10 -2 6 16 20 18 21 27 5z m-129
-103 c-23 -22 -33 -18 -12 5 10 11 20 18 23 16 2 -3 -3 -12 -11 -21z m6028
-324 c3 -5 0 -13 -6 -17 -7 -4 -9 -3 -5 4 3 5 0 13 -6 15 -9 4 -10 6 -1 6 6 1
14 -3 18 -8z m169 -179 c3 -5 -1 -9 -9 -9 -8 0 -12 4 -9 9 3 4 7 8 9 8 2 0 6
-4 9 -8z m201 -302 c3 -6 -1 -7 -9 -4 -18 7 -21 14 -7 14 6 0 13 -4 16 -10z
m-7470 -620 c-3 -5 -11 -10 -16 -10 -6 0 -7 5 -4 10 3 6 11 10 16 10 6 0 7 -4
4 -10z m7888 -180 c-3 -11 -9 -22 -13 -25 -12 -7 -7 29 5 37 14 10 14 10 8
-12z m30 -77 c-4 -10 -9 -11 -19 -2 -18 15 -18 15 5 15 11 0 17 -5 14 -13z
m-8019 -44 c-3 -5 -10 -7 -15 -3 -5 3 -7 10 -3 15 3 5 10 7 15 3 5 -3 7 -10 3
-15z m8050 -50 c-3 -5 -10 -7 -15 -3 -5 3 -7 10 -3 15 3 5 10 7 15 3 5 -3 7
-10 3 -15z m102 -525 c1 -9 0 -13 -4 -10 -3 4 -7 14 -8 22 -1 9 0 13 4 10 3
-4 7 -14 8 -22z m-8309 -676 c-3 -8 -6 -5 -6 6 -1 11 2 17 5 13 3 -3 4 -12 1
-19z m77 -490 c-3 -4 -9 -8 -15 -8 -5 0 -9 4 -9 8 0 5 7 9 15 9 8 0 12 -4 9
-9z m63 -248 c-1 -21 -10 -18 -13 5 -1 8 2 15 6 15 5 0 8 -9 7 -20z m7558
-1020 c-20 -22 -35 -26 -35 -9 0 5 5 7 10 4 6 -3 13 1 16 9 3 9 11 16 17 16 5
0 2 -9 -8 -20z m-58 -65 c0 -8 -5 -11 -10 -8 -6 4 -8 0 -4 -9 3 -9 -2 -23 -12
-32 -15 -13 -18 -14 -18 -2 0 8 5 14 11 13 6 -1 10 4 8 12 -1 7 3 19 9 27 14
17 16 17 16 -1z m-6892 -85 c3 -6 -1 -7 -9 -4 -18 7 -21 14 -7 14 6 0 13 -4
16 -10z m80 -80 c17 -8 16 -8 -7 -7 -16 1 -28 5 -28 9 0 10 9 9 35 -2z m6438
-275 c-3 -9 -8 -14 -10 -11 -3 3 -2 9 2 15 9 16 15 13 8 -4z m-570 -469 c6
-15 -17 -16 -30 -1 -4 4 -2 5 5 1 6 -4 12 -2 12 3 0 15 7 14 13 -3z m-533
-296 c0 -5 -2 -10 -4 -10 -3 0 -8 5 -11 10 -3 6 -1 10 4 10 6 0 11 -4 11 -10z
m-3980 -4 c0 -2 -7 -7 -16 -10 -8 -3 -12 -2 -9 4 6 10 25 14 25 6z m3833 -71
c-3 -9 -8 -14 -10 -11 -3 3 -2 9 2 15 9 16 15 13 8 -4z m-306 -120 c0 -8 -4
-12 -9 -9 -5 3 -6 10 -3 15 9 13 12 11 12 -6z m-3047 -25 c0 -5 -2 -10 -4 -10
-3 0 -8 5 -11 10 -3 6 -1 10 4 10 6 0 11 -4 11 -10z m2940 -16 c0 -8 -19 -13
-24 -6 -3 5 1 9 9 9 8 0 15 -2 15 -3z m-370 -108 c0 -3 -4 -8 -10 -11 -5 -3
-10 -1 -10 4 0 6 5 11 10 11 6 0 10 -2 10 -4z m-620 -90 c0 -2 -8 -10 -17 -17
-16 -13 -17 -12 -4 4 13 16 21 21 21 13z"/>
<path d="M4486 7962 c-3 -5 1 -9 9 -9 8 0 12 4 9 9 -3 4 -7 8 -9 8 -2 0 -6 -4
-9 -8z"/>
<path d="M3733 7945 c0 -8 4 -12 9 -9 5 3 6 10 3 15 -9 13 -12 11 -12 -6z"/>
<path d="M3356 7888 c3 -5 10 -6 15 -3 13 9 11 12 -6 12 -8 0 -12 -4 -9 -9z"/>
<path d="M3206 7867 c3 -10 9 -15 12 -12 3 3 0 11 -7 18 -10 9 -11 8 -5 -6z"/>
<path d="M3076 7835 c-3 -8 -1 -15 4 -15 6 0 10 7 10 15 0 8 -2 15 -4 15 -2 0
-6 -7 -10 -15z"/>
<path d="M5536 7777 c3 -10 9 -15 12 -12 3 3 0 11 -7 18 -10 9 -11 8 -5 -6z"/>
<path d="M5616 7757 c3 -10 9 -15 12 -12 3 3 0 11 -7 18 -10 9 -11 8 -5 -6z"/>
<path d="M2730 7730 c-8 -5 -12 -12 -9 -15 4 -3 12 1 19 10 14 17 11 19 -10 5z"/>
<path d="M2446 7631 c-4 -5 -2 -12 3 -15 5 -4 12 -2 15 3 4 5 2 12 -3 15 -5 4
-12 2 -15 -3z"/>
<path d="M6030 7589 c0 -5 5 -7 10 -4 6 3 10 8 10 11 0 2 -4 4 -10 4 -5 0 -10
-5 -10 -11z"/>
<path d="M6375 7431 c-3 -5 -1 -12 5 -16 5 -3 10 1 10 9 0 18 -6 21 -15 7z"/>
<path d="M1886 7349 c3 -5 0 -9 -5 -9 -6 0 -11 -5 -11 -12 0 -6 7 -4 18 5 10
10 21 16 23 15 2 -2 3 -1 1 1 -1 3 -9 6 -17 7 -8 1 -13 -2 -9 -7z"/>
<path d="M6570 7310 c0 -5 5 -10 11 -10 5 0 7 5 4 10 -3 6 -8 10 -11 10 -2 0
-4 -4 -4 -10z"/>
<path d="M1715 7230 c-4 -6 -11 -7 -17 -4 -6 4 -8 2 -5 -3 4 -6 0 -14 -9 -17
-9 -4 -14 -9 -11 -12 3 -4 20 5 37 20 17 14 27 26 21 26 -5 0 -13 -5 -16 -10z"/>
<path d="M6736 7198 c3 -5 10 -6 15 -3 13 9 11 12 -6 12 -8 0 -12 -4 -9 -9z"/>
<path d="M1620 7159 c0 -5 5 -7 10 -4 6 3 10 8 10 11 0 2 -4 4 -10 4 -5 0 -10
-5 -10 -11z"/>
<path d="M6940 7063 c0 -6 8 -17 18 -24 16 -13 16 -13 2 6 -8 11 -16 22 -17
24 -2 2 -3 0 -3 -6z"/>
<path d="M895 6530 c-3 -5 -1 -10 4 -10 6 0 11 5 11 10 0 6 -2 10 -4 10 -3 0
-8 -4 -11 -10z"/>
<path d="M7683 6294 c0 -16 13 -19 21 -5 3 5 0 11 -7 14 -8 3 -14 -1 -14 -9z"/>
<path d="M7840 6069 c12 -16 24 -28 27 -25 3 3 -2 12 -11 21 -9 9 -14 21 -11
26 4 5 -1 9 -10 9 -14 0 -13 -5 5 -31z"/>
<path d="M7880 6011 c0 -6 4 -13 10 -16 6 -3 7 1 4 9 -7 18 -14 21 -14 7z"/>
<path d="M8055 5690 c3 -5 8 -10 11 -10 2 0 4 5 4 10 0 6 -5 10 -11 10 -5 0
-7 -4 -4 -10z"/>
<path d="M297 5573 c3 -7 6 -13 8 -13 2 0 5 6 8 13 3 8 -1 14 -8 14 -7 0 -11
-6 -8 -14z"/>
<path d="M8144 5486 c1 -9 7 -21 13 -27 9 -9 11 -7 9 5 -1 9 -7 21 -13 27 -9
9 -11 7 -9 -5z"/>
<path d="M8185 5410 c-3 -6 1 -7 9 -4 18 7 21 14 7 14 -6 0 -13 -4 -16 -10z"/>
<path d="M8219 5338 c-8 -27 -5 -36 9 -30 10 4 12 7 4 10 -7 2 -10 8 -6 13 3
5 3 9 0 9 -3 0 -6 -1 -7 -2z"/>
<path d="M8315 4951 c-3 -5 -2 -12 3 -15 5 -3 9 1 9 9 0 17 -3 19 -12 6z"/>
<path d="M38 4563 c6 -2 9 -10 6 -15 -4 -7 -2 -8 5 -4 13 9 5 26 -12 25 -9 0
-8 -2 1 -6z"/>
<path d="M94 3402 c0 -19 19 -24 31 -9 3 4 2 5 -2 2 -3 -3 -11 2 -17 11 -10
13 -12 13 -12 -4z"/>
<path d="M316 2812 c-3 -5 1 -9 9 -9 8 0 12 4 9 9 -3 4 -7 8 -9 8 -2 0 -6 -4
-9 -8z"/>
<path d="M350 2716 c0 -2 7 -6 15 -10 8 -3 15 -1 15 4 0 6 -7 10 -15 10 -8 0
-15 -2 -15 -4z"/>
<path d="M7925 2500 c-3 -6 1 -7 9 -4 18 7 21 14 7 14 -6 0 -13 -4 -16 -10z"/>
<path d="M519 2432 c9 -7 10 -11 2 -15 -7 -4 -8 -5 0 -3 15 2 13 20 -3 24 -10
3 -10 2 1 -6z"/>
<path d="M673 2195 c0 -8 4 -12 9 -9 5 3 6 10 3 15 -9 13 -12 11 -12 -6z"/>
<path d="M731 2114 c0 -11 3 -14 6 -6 3 7 2 16 -1 19 -3 4 -6 -2 -5 -13z"/>
<path d="M1150 1656 c0 -2 7 -7 16 -10 8 -3 12 -2 9 4 -6 10 -25 14 -25 6z"/>
<path d="M6865 1330 c-3 -6 1 -7 9 -4 18 7 21 14 7 14 -6 0 -13 -4 -16 -10z"/>
<path d="M6655 1191 c-3 -5 -2 -12 3 -15 5 -3 9 1 9 9 0 17 -3 19 -12 6z"/>
<path d="M6297 983 c-4 -3 -7 -11 -7 -17 0 -6 5 -5 12 2 6 6 9 14 7 17 -3 3
-9 2 -12 -2z"/>
<path d="M6230 951 c0 -10 19 -25 25 -20 1 2 -3 10 -11 17 -8 7 -14 8 -14 3z"/>
<path d="M2236 912 c-3 -5 1 -9 9 -9 8 0 12 4 9 9 -3 4 -7 8 -9 8 -2 0 -6 -4
-9 -8z"/>
<path d="M6090 871 c0 -6 4 -13 10 -16 6 -3 7 1 4 9 -7 18 -14 21 -14 7z"/>
<path d="M5947 823 c-4 -3 -7 -11 -7 -17 0 -6 5 -5 12 2 6 6 9 14 7 17 -3 3
-9 2 -12 -2z"/>
<path d="M5875 790 c-3 -5 -1 -10 4 -10 6 0 11 5 11 10 0 6 -2 10 -4 10 -3 0
-8 -4 -11 -10z"/>
<path d="M5835 770 c-13 -14 -21 -17 -26 -9 -8 14 -29 3 -28 -14 0 -8 2 -8 6
1 3 9 9 10 17 3 9 -8 19 -4 36 14 13 14 21 25 18 25 -3 0 -13 -9 -23 -20z"/>
<path d="M5507 665 c-12 -8 -14 -15 -8 -20 6 -3 11 -1 11 5 0 6 4 9 9 5 5 -3
12 -1 15 4 10 16 -8 20 -27 6z"/>
<path d="M2950 635 c-11 -13 -10 -14 4 -9 9 3 16 10 16 15 0 13 -6 11 -20 -6z"/>
<path d="M3011 624 c0 -11 3 -14 6 -6 3 7 2 16 -1 19 -3 4 -6 -2 -5 -13z"/>
<path d="M5373 615 c0 -7 6 -11 14 -8 7 3 13 6 13 8 0 2 -6 5 -13 8 -8 3 -14
-1 -14 -8z"/>
<path d="M3156 592 c-3 -5 1 -9 9 -9 8 0 12 4 9 9 -3 4 -7 8 -9 8 -2 0 -6 -4
-9 -8z"/>
<path d="M5177 572 c5 -10 8 -11 13 -2 5 7 13 9 20 5 8 -5 11 -4 6 3 -10 16
-45 11 -39 -6z"/>
<path d="M3455 530 c-3 -5 -1 -10 4 -10 6 0 11 5 11 10 0 6 -2 10 -4 10 -3 0
-8 -4 -11 -10z"/>
<path d="M4224 482 c4 -3 14 -7 22 -8 9 -1 13 0 10 4 -4 3 -14 7 -22 8 -9 1
-13 0 -10 -4z"/>
</g>
</svg>
